<svg width="24" height="24" viewBox="0 0 24 24" fill="none" xmlns="http://www.w3.org/2000/svg">
    <path d="M18.9998 19L15.6219 15.6221M15.6219 15.6221C16.1997 15.0444 16.658 14.3584 16.9707 13.6035C17.2834 12.8486 17.4444 12.0394 17.4444 11.2223C17.4444 10.4052 17.2834 9.59606 16.9707 8.84114C16.658 8.08621 16.1997 7.40027 15.6219 6.82247C15.0441 6.24468 14.3582 5.78635 13.6032 5.47365C12.8483 5.16094 12.0392 5 11.2221 5C10.4049 5 9.59582 5.16094 8.84089 5.47365C8.08597 5.78635 7.40002 6.24468 6.82223 6.82247C5.65532 7.98938 4.99976 9.57205 4.99976 11.2223C4.99976 12.8726 5.65532 14.4552 6.82223 15.6221C7.98914 16.7891 9.57181 17.4446 11.2221 17.4446C12.8723 17.4446 14.455 16.7891 15.6219 15.6221Z" stroke="#1D1D1D" stroke-width="2" stroke-linecap="round" stroke-linejoin="round"/>
</svg>
